HIERARCHY
ROOT Pelvis
{
	OFFSET -0.001795 -0.223333 0.028219
	CHANNELS 6 Xposition Yposition Zposition Zrotation Yrotation Xrotation 
	JOINT Left_hip
	{
		OFFSET 0.069520 -0.091406 -0.006815
		CHANNELS 3 Zrotation Yrotation Xrotation
		JOINT Left_knee
		{
			OFFSET 0.034277 -0.375199 -0.004496
			CHANNELS 3 Zrotation Yrotation Xrotation
			JOINT Left_ankle
			{
				OFFSET -0.013596 -0.397960 -0.043693
				CHANNELS 3 Zrotation Yrotation Xrotation
				JOINT Left_foot
				{
					OFFSET 0.026358 -0.055791 0.119288
					CHANNELS 3 Zrotation Yrotation Xrotation
					End Site
					{
						OFFSET 0.000000 0.000000 0.000000
					}
				}
			}
		}
	}
	JOINT Right_hip
	{
		OFFSET -0.067670 -0.090522 -0.004320
		CHANNELS 3 Zrotation Yrotation Xrotation
		JOINT Right_knee
		{
			OFFSET -0.038290 -0.382569 -0.008850
			CHANNELS 3 Zrotation Yrotation Xrotation
			JOINT Right_ankle
			{
				OFFSET 0.015774 -0.398415 -0.042312
				CHANNELS 3 Zrotation Yrotation Xrotation
				JOINT Right_foot
				{
					OFFSET -0.025372 -0.048144 0.123348
					CHANNELS 3 Zrotation Yrotation Xrotation
					End Site
					{
						OFFSET 0.000000 0.000000 0.000000
					}
				}
			}
		}
	}
	JOINT Spine1
	{
		OFFSET -0.002533 0.108963 -0.026696
		CHANNELS 3 Zrotation Yrotation Xrotation
		JOINT Spine2
		{
			OFFSET 0.005487 0.135180 0.001092
			CHANNELS 3 Zrotation Yrotation Xrotation
			JOINT Spine3
			{
				OFFSET 0.001457 0.052922 0.025425
				CHANNELS 3 Zrotation Yrotation Xrotation
				JOINT Neck
				{
					OFFSET -0.002778 0.213870 -0.042857
					CHANNELS 3 Zrotation Yrotation Xrotation
					JOINT Head
					{
						OFFSET 0.005152 0.064970 0.051349
						CHANNELS 3 Zrotation Yrotation Xrotation
						End Site
						{
							OFFSET 0.000000 0.000000 0.000000
						}
					}
				}
				JOINT Left_collar
				{
					OFFSET 0.078845 0.121749 -0.034090
					CHANNELS 3 Zrotation Yrotation Xrotation
					JOINT Left_shoulder
					{
						OFFSET 0.090977 0.030469 -0.008868
						CHANNELS 3 Zrotation Yrotation Xrotation
						JOINT Left_elbow
						{
							OFFSET 0.259612 -0.012772 -0.027456
							CHANNELS 3 Zrotation Yrotation Xrotation
							JOINT Left_wrist
							{
								OFFSET 0.249234 0.008986 -0.001171
								CHANNELS 3 Zrotation Yrotation Xrotation
								JOINT Left_palm
								{
									OFFSET 0.084042 -0.008162 -0.014945
									CHANNELS 3 Zrotation Yrotation Xrotation
									End Site
									{
										OFFSET 0.000000 0.000000 0.000000
									}
								}
							}
						}
					}
				}
				JOINT Right_collar
				{
					OFFSET -0.081759 0.118833 -0.038615
					CHANNELS 3 Zrotation Yrotation Xrotation
					JOINT Right_shoulder
					{
						OFFSET -0.096012 0.032551 -0.009143
						CHANNELS 3 Zrotation Yrotation Xrotation
						JOINT Right_elbow
						{
							OFFSET -0.253742 -0.013329 -0.021401
							CHANNELS 3 Zrotation Yrotation Xrotation
							JOINT Right_wrist
							{
								OFFSET -0.255298 0.007772 -0.005559
								CHANNELS 3 Zrotation Yrotation Xrotation
								JOINT Right_palm
								{
									OFFSET -0.084622 -0.006117 -0.010315
									CHANNELS 3 Zrotation Yrotation Xrotation
									End Site
									{
										OFFSET 0.000000 0.000000 0.000000
									}
								}
							}
						}
					}
				}
			}
		}
	}
}
MOTION
Frames: 6
Frame Time: 0.016667
-0.001795 0.776466 0.028219 -4.051968 -0.111697 -1.576386 8.579204 1.542169 2.534438 -1.197373 -2.473856 3.418668 -1.329865 13.830147 -14.663178 0.000000 0.000000 0.000000 2.961217 1.189281 -2.747626 -0.466169 -0.656161 5.514146 2.305386 -6.759613 -10.989752 0.000000 0.000000 0.000000 -0.536994 0.191500 7.847260 2.250235 -0.569998 -1.383516 1.195470 -0.836432 3.034404 0.331442 -6.364537 10.276559 -0.902817 -10.190407 11.112359 -18.513627 9.587982 1.935263 -74.584501 -11.556928 13.077399 5.057726 -15.392090 16.794341 -6.610685 2.255853 -13.508788 0.000000 0.000000 0.000000 18.284063 -5.200386 -0.524477 70.479776 9.561758 14.339189 -9.283139 11.313602 3.288173 6.904646 -2.629783 -11.978336 0.000000 0.000000 0.000000 
-0.003315 0.776378 0.027667 -4.092551 0.211376 -1.630686 8.730065 1.448244 2.355890 -1.217387 -2.811073 3.650006 -1.262976 13.910400 -14.750590 0.000000 0.000000 0.000000 3.190270 1.144591 -3.024274 -0.545638 -0.637078 6.179075 2.040572 -6.888402 -11.548082 0.000000 0.000000 0.000000 -0.585843 0.220329 8.114605 2.274560 -0.611920 -1.486031 1.267528 -0.876501 3.198770 0.178719 -5.492338 10.615892 -0.893030 -9.506990 11.744139 -18.386504 9.502652 2.031066 -74.820166 -11.292084 13.329299 5.299869 -17.026962 16.966535 -3.917802 3.583540 -13.144585 0.000000 0.000000 0.000000 18.645938 -5.054821 -0.321209 71.312581 9.298984 14.815746 -8.472947 11.611518 4.502945 7.190623 -3.181070 -11.924086 0.000000 0.000000 0.000000 
-0.004517 0.776439 0.027136 -4.000557 0.405306 -1.669986 8.716233 1.491310 2.202472 -1.252890 -3.060994 3.885921 -1.187658 13.897657 -14.933609 0.000000 0.000000 0.000000 3.244533 1.177140 -3.299413 -0.607392 -0.611220 6.843929 1.913715 -6.998824 -12.168880 0.000000 0.000000 0.000000 -0.728120 0.324976 8.393045 2.324195 -0.576606 -1.458336 1.284657 -0.836991 3.214300 0.165965 -4.642617 10.988747 -0.966891 -9.118501 12.176740 -18.205610 9.385020 1.999969 -74.140898 -11.068215 13.288976 5.156373 -18.602307 17.953025 -2.969629 4.058447 -11.446342 0.000000 0.000000 0.000000 18.896624 -5.025202 -0.195175 71.539433 9.105896 14.702423 -8.395950 12.029918 4.645557 7.848521 -3.546393 -12.014571 0.000000 0.000000 0.000000 
-0.005402 0.776531 0.026788 -3.884614 0.595635 -1.602120 8.642907 1.552781 1.969023 -1.296836 -3.347049 4.081964 -1.030742 13.888670 -15.194148 0.000000 0.000000 0.000000 3.207471 1.331951 -3.654783 -0.593084 -0.611932 7.482288 1.764408 -7.238381 -12.832352 0.000000 0.000000 0.000000 -0.846833 0.334815 8.591176 2.423798 -0.493003 -1.420500 1.197632 -0.709587 3.185319 0.274195 -3.812276 11.360469 -1.177650 -8.952780 12.548198 -17.837876 9.186132 2.032613 -72.764671 -10.753667 13.584088 4.145006 -20.524483 20.237955 -3.551579 3.463664 -10.393531 0.000000 0.000000 0.000000 18.892586 -5.096101 -0.017810 71.110022 8.877178 14.376231 -8.780311 12.904056 3.965088 8.181214 -3.358313 -13.120347 0.000000 0.000000 0.000000 
-0.006177 0.776548 0.026669 -3.807927 0.865025 -1.482073 8.620572 1.588076 1.680102 -1.362700 -3.708505 4.254367 -0.883362 13.890270 -15.479605 0.000000 0.000000 0.000000 3.180243 1.524980 -4.004408 -0.500245 -0.589976 8.005257 1.640137 -7.500380 -13.422803 0.000000 0.000000 0.000000 -0.900726 0.263483 8.754435 2.507599 -0.434660 -1.420995 1.080004 -0.573424 3.208704 0.489537 -3.042552 11.648102 -1.426531 -8.838806 12.937256 -17.326277 8.939396 2.023621 -71.187094 -10.532053 14.006912 2.738166 -22.306297 23.056241 -4.271603 2.383421 -9.292532 0.000000 0.000000 0.000000 18.684595 -5.100474 0.103930 70.249059 8.796199 14.090140 -8.878578 13.610028 3.878393 7.776775 -2.738505 -13.205733 0.000000 0.000000 0.000000 
-0.007085 0.776497 0.026451 -3.735911 1.251021 -1.296561 8.662949 1.431608 1.323097 -1.531694 -4.071300 4.351243 -0.759990 14.009323 -15.718456 0.000000 0.000000 0.000000 3.152008 1.671093 -4.377675 -0.378874 -0.569216 8.416979 1.560161 -7.841865 -13.953584 0.000000 0.000000 0.000000 -0.973282 0.258356 8.904512 2.577352 -0.476054 -1.446589 1.007965 -0.521888 3.218217 0.714863 -2.395891 11.987296 -1.569379 -8.658582 13.135131 -16.791041 8.570470 2.013498 -69.495451 -10.453211 14.295125 1.253425 -23.773944 25.576671 -4.872362 1.510546 -7.930939 0.000000 0.000000 0.000000 18.314516 -4.939201 0.192787 69.147016 8.803556 13.807991 -8.789685 13.994666 4.128937 7.267851 -2.396341 -12.690100 0.000000 0.000000 0.000000 
